<?xml version="1.0" standalone="no"?>
<!DOCTYPE svg PUBLIC "-//W3C//DTD SVG 20010904//EN"
 "http://www.w3.org/TR/2001/REC-SVG-20010904/DTD/svg10.dtd">
<svg version="1.0" xmlns="http://www.w3.org/2000/svg"
 width="512.000000pt" height="512.000000pt" viewBox="0 0 512.000000 512.000000"
 preserveAspectRatio="xMidYMid meet">
<metadata>
Created by potrace 1.14, written by Peter Selinger 2001-2017
</metadata>
<g transform="translate(0.000000,512.000000) scale(0.100000,-0.100000)"
fill="#000000" stroke="none">
<path d="M2475 4150 c-232 -25 -475 -115 -674 -248 -113 -75 -267 -224 -356
-342 -373 -501 -381 -1207 -18 -1726 63 -91 202 -234 298 -309 264 -204 561
-305 895 -305 415 0 767 147 1058 442 197 200 329 453 391 753 29 136 29 408
2 540 -89 419 -314 753 -655 970 -78 50 -241 127 -338 160 -169 57 -422 85
-603 65z m-212 -866 c89 -31 133 -88 124 -158 -4 -27 -15 -49 -32 -63 -52 -45
-86 -22 -105 71 -13 61 -52 116 -84 116 -62 0 -106 -57 -106 -139 0 -79 40
-144 186 -301 157 -169 199 -243 198 -354 -1 -132 -75 -237 -202 -287 -74 -30
-245 -33 -304 -6 -47 22 -105 72 -124 108 -27 54 -9 147 31 163 54 20 77 -1
100 -94 11 -47 27 -80 45 -100 25 -26 35 -30 83 -30 96 0 147 63 147 182 0 99
-28 146 -218 359 -51 58 -97 122 -119 166 -33 67 -35 78 -31 140 6 77 23 118
72 166 79 79 216 104 339 61z m924 -6 c55 -20 108 -71 119 -113 15 -59 -40
-135 -97 -135 -37 0 -56 30 -71 110 -18 105 -65 132 -154 89 -126 -60 -204
-240 -204 -469 0 -175 33 -286 104 -348 53 -47 140 -65 201 -42 l25 10 -2 167
-3 168 -57 3 c-54 3 -58 5 -58 27 l0 25 200 0 200 0 0 -25 c0 -23 -4 -25 -44
-25 l-44 0 -4 -242 c-6 -282 -11 -307 -89 -392 -60 -65 -137 -102 -246 -117
-130 -17 -243 14 -251 68 -2 11 8 33 21 48 22 26 24 27 38 10 59 -74 76 -85
126 -85 52 0 118 26 145 56 32 36 58 111 61 173 l2 61 -125 3 c-152 3 -213 24
-293 97 -94 86 -137 203 -137 373 0 191 67 338 198 436 125 94 298 121 439 69z
m337 -948 c39 -14 60 -63 46 -106 -22 -66 -85 -83 -139 -38 -25 20 -31 34 -31
64 0 30 6 44 31 64 33 28 53 32 93 16z"/>
<path d="M3439 2301 c-35 -36 -37 -61 -6 -97 48 -56 127 -24 127 51 0 24 -7
39 -26 54 -36 28 -60 26 -95 -8z m41 -27 c0 -15 4 -23 11 -18 6 3 9 15 6 25
-3 13 0 19 10 19 12 0 14 -7 9 -31 -3 -17 -1 -39 4 -50 8 -14 7 -19 -3 -19 -8
0 -19 10 -25 23 l-11 22 0 -22 c-1 -14 -7 -23 -16 -23 -11 0 -15 12 -15 50 0
38 4 50 15 50 9 0 15 -10 15 -26z"/>
</g>
</svg>
